<svg id="cart-black-icon" xmlns="http://www.w3.org/2000/svg" width="27.308" height="27.411" viewBox="0 0 27.308 27.411">
  <g id="Path_15" data-name="Path 15" fill="none" fill-rule="evenodd">
    <path d="M5.048,2.811H25.861c1.361,0,1.287.551,1.169,1.956l-.774,9.869c-.132,1.573-.02,1.191-1.686,1.43L9.262,18.013l.81,2.349H26.559c.223.834.526,2.193.75,3.123H24.569l-.263-.95H11.131c-3.023-.051-2.719.767-3.444-1.845L2.494,1.809H0V0H4.374c.2.761.484,2.041.674,2.811Zm6.929,20.371A2.115,2.115,0,1,1,9.862,25.3a2.116,2.116,0,0,1,2.115-2.115Zm8.722,0A2.115,2.115,0,1,1,18.584,25.3,2.116,2.116,0,0,1,20.7,23.181Z" stroke="none"/>
    <path d="M 5.393774032592773 4.810686111450195 L 8.497238159179688 16.09408569335938 L 9.009471893310547 16.02891540527344 L 24.29244804382324 14.0845832824707 L 25.01984977722168 4.810686111450195 L 5.393774032592773 4.810686111450195 M 1.9073486328125e-06 -3.814697265625e-06 L 4.374412536621094 -3.814697265625e-06 C 4.577402114868164 0.7606658935546875 4.85847282409668 2.041086196899414 5.04808235168457 2.810686111450195 L 25.86054229736328 2.810686111450195 C 27.22126197814941 2.810686111450195 27.14765167236328 3.361667633056641 27.02942276000977 4.767005920410156 L 26.25537109375 14.63564682006836 C 26.1237621307373 16.20828628540039 26.23529243469238 15.82683658599854 24.56896209716797 16.06552696228027 L 9.261882781982422 18.0129280090332 L 10.07162094116211 20.36185646057129 C 16.71242141723633 20.36185646057129 19.92240142822266 20.36185646057129 26.55875205993652 20.36185646057129 C 26.78181266784668 21.19613647460938 27.08519172668457 22.55463600158691 27.30826187133789 23.48483657836914 L 24.56896209716797 23.48483657836914 L 24.30573272705078 22.5345573425293 C 18.77359199523926 22.5345573425293 16.66558074951172 22.5345573425293 11.13120269775391 22.5345573425293 C 11.03453254699707 22.53291511535645 10.9409122467041 22.53216171264648 10.85090446472168 22.53216171264648 C 9.892589569091797 22.53216171264648 9.303974151611328 22.61706924438477 8.912740707397461 22.61706924438477 C 8.191774368286133 22.61706924438477 8.141927719116211 22.32889747619629 7.687002182006836 20.68976593017578 L 2.493921279907227 1.809097290039063 L 1.9073486328125e-06 1.809097290039063 L 1.9073486328125e-06 -3.814697265625e-06 Z M 11.97664165496826 23.18146705627441 C 13.14330196380615 23.18146705627441 14.09135150909424 24.1295166015625 14.09135150909424 25.29616737365723 C 14.09135150909424 26.46505737304688 13.14330196380615 27.4108772277832 11.97664165496826 27.4108772277832 C 10.80775260925293 27.4108772277832 9.861932754516602 26.46505737304688 9.861932754516602 25.29616737365723 C 9.861932754516602 24.1295166015625 10.80775260925293 23.18146705627441 11.97664165496826 23.18146705627441 Z M 20.69869232177734 23.18146705627441 C 21.86535263061523 23.18146705627441 22.81340217590332 24.1295166015625 22.81340217590332 25.29616737365723 C 22.81340217590332 26.46505737304688 21.86535263061523 27.4108772277832 20.69869232177734 27.4108772277832 C 19.5298023223877 27.4108772277832 18.58399200439453 26.46505737304688 18.58399200439453 25.29616737365723 C 18.58398056030273 24.1295166015625 19.53203201293945 23.18146705627441 20.69869232177734 23.18146705627441 Z" stroke="none" fill="#0b538f"/>
  </g>
</svg>
