<svg xmlns="http://www.w3.org/2000/svg" width="39.995" height="31.082" viewBox="0 0 39.995 31.082">
  <g id="couple-icon" transform="translate(0 0.005)">
    <path id="Path_14" data-name="Path 14" d="M0,31.077V26.231c2.317-1.032,11.385-3.307,11.958-6.2.257-1.305-.332-1.933-.976-2.962l-2.073-3.3c-.485-.778-.85-1.055-.84-2.011a11.6,11.6,0,0,1,.094-1.588A2.125,2.125,0,0,1,8.69,8.947c.234-.358.205-.465.205-1.289V5.608c0-2.37.872-3.854,2.343-4.693A10.529,10.529,0,0,1,19.9.94c1.445.846,2.3,2.324,2.3,4.667V7.658c0,.921-.033.947.3,1.429a1.651,1.651,0,0,1,.4.859,10.321,10.321,0,0,1,.127,1.8c.013.957-.352,1.234-.836,2.011l1.5.941.251-.365a3.681,3.681,0,0,0,.859-2.422,1.676,1.676,0,0,0,.007-.182h-.007c0-.358-.01-.71-.026-.989a8.825,8.825,0,0,0-.13-1.129,2.685,2.685,0,0,0-.524-1.308c-.026-.046-.055-.088-.085-.133h0L24,8.117l-.026-.039h0l0-.007h0a.691.691,0,0,0,.013-.189V7.658h.007V5.608A9.513,9.513,0,0,0,23.8,3.7c4.16-2.828,9.9-.033,11.086,8.4,1.136,8.118,6.005,7.828-1.595,7.828H30.26c-.01,2.067-.335,3.125,1.81,4.283S40,25.96,40,28.9v1.881a.276.276,0,0,1-.277.273H32.112V25.622c0-1.872-2.594-2.223-3.961-2.646-1.25-.384-2.724-.84-4.013-1.321.029-.508-.013-1.074-.016-1.732H21a.645.645,0,0,1-.1-.238,1.557,1.557,0,0,1,.378-1.126,1.246,1.246,0,0,0,.088-.127l-.055-.036h0l.055.033.2-.316.072-.1,0,0,2-3.183.081-.117-1.51-.947-2.073,3.3c-.644,1.029-1.234,1.66-.976,2.962.57,2.9,8.866,4.527,11.184,5.559V31.07L0,31.077Z" fill="#d6d6d6" fill-rule="evenodd"/>
  </g>
</svg>
