<svg xmlns="http://www.w3.org/2000/svg" width="7.902" height="17.969" viewBox="0 0 7.902 17.969">
  <path id="more-info-icon" d="M13.835,9.076A2.207,2.207,0,0,1,14,8.225a2.133,2.133,0,0,1,.485-.708,2.257,2.257,0,0,1,.7-.479,2.16,2.16,0,0,1,1.644,0,2.21,2.21,0,0,1,.7.481A2.139,2.139,0,0,1,18,8.227a2.22,2.22,0,0,1,.159.849A2.183,2.183,0,0,1,18,9.911a2.218,2.218,0,0,1-.475.712,2.149,2.149,0,0,1-.694.489,2.077,2.077,0,0,1-.823.164,2.076,2.076,0,0,1-1.542-.647,2.146,2.146,0,0,1-.632-1.553ZM14.792,21.8c-.079.284-.239.84.236.84a.73.73,0,0,0,.39-.171A3.767,3.767,0,0,0,16,21.919a10.236,10.236,0,0,0,.691-.887c.238-.34.489-.73.749-1.165a.1.1,0,0,1,.135-.034l.883.656a.1.1,0,0,1,.025.133,15.338,15.338,0,0,1-1.233,1.849,8.291,8.291,0,0,1-1.272,1.317l-.007,0a4.97,4.97,0,0,1-1.322.787c-1.256.487-3.241.407-3.809-1.059a4.469,4.469,0,0,1,.219-2.884l1.426-4.318a7.291,7.291,0,0,0,.248-1.024c.069-.562-.178-.926-.79-.926H10.695a.1.1,0,0,1-.1-.1l.006-.034.327-1.192a.1.1,0,0,1,.1-.073l6.367-.2a.1.1,0,0,1,.1.1l-.005.031-2.7,8.909Z" transform="translate(-10.596 -6.876)" fill="#fff"/>
</svg>
