<svg xmlns="http://www.w3.org/2000/svg" width="159.67" height="264.598" viewBox="0 0 159.67 264.598">
  <g id="Group_1" data-name="Group 1" transform="translate(-123.922 -44.986)">
    <path id="Path_1" data-name="Path 1" d="M204.669,134.345a4.051,4.051,0,0,0-.3-2.239,19.283,19.283,0,0,0-1.77-3.769,34.182,34.182,0,0,0-6.04-7.652A82.409,82.409,0,0,0,182.369,110.1c-3.723-2.24-7.485-4.414-11.209-6.653q-3.35-2.014-6.631-4.143a4.485,4.485,0,0,0-2.562-.786c-2.7.021-5.394-.037-8.089.02a2.921,2.921,0,0,1-2.578-1.212c-.719-.926-1.531-1.78-2.277-2.687a29.115,29.115,0,0,1-6.4-14.2,35.073,35.073,0,0,1-.34-7.539,60.28,60.28,0,0,1,4.185-17.818c1.122-2.965,2.25-5.924,3.276-8.923.137-.4.327-.783.494-1.174.329.084.225.283.205.407-.285,1.757-.666,3.5-.86,5.27-.85,7.762.454,15.066,4.765,21.7a30.491,30.491,0,0,0,3.778,4.649,61.535,61.535,0,0,0,11.934,9.45c4.773,2.936,9.6,5.791,14.413,8.654a89.226,89.226,0,0,1,11.375,7.824,47.006,47.006,0,0,1,7.49,7.606,33.482,33.482,0,0,1,6.589,15.281,44.742,44.742,0,0,1,.437,8.974,70.238,70.238,0,0,1-2.012,12.594c-.58,2.54-1.1,5.094-1.724,7.623a48.315,48.315,0,0,0-1.075,5.226,1.039,1.039,0,0,1-.473.917c0-.321-.012-.578,0-.834a12.646,12.646,0,0,0-.774-4.987,30.141,30.141,0,0,0-7.519-11.753,49.121,49.121,0,0,0-23.88-12.887,41.45,41.45,0,0,0-12.3-.9,30.845,30.845,0,0,0-14.78,4.928,29.646,29.646,0,0,0-6.951,6.448,36.778,36.778,0,0,0-5.149,8.73,49.94,49.94,0,0,0-3.792,15.376,43.438,43.438,0,0,0,3.772,21.984,69.139,69.139,0,0,0,8.188,13.442,174.21,174.21,0,0,0,15.861,17.816c6.8,6.668,13.607,13.338,19.981,20.419a94.511,94.511,0,0,1,14.149,19.942,58.511,58.511,0,0,1,5.748,16.827,50.771,50.771,0,0,1,.714,10.78,74.956,74.956,0,0,1-3.085,18.069,30.319,30.319,0,0,1-1.442,4.318c-.106.229-.221.452-.345.7-.33-.232-.184-.506-.149-.715.206-1.242.425-2.483.674-3.717a26,26,0,0,0,.611-5.04c.008-2.087.053-4.177-.034-6.261a44.576,44.576,0,0,0-1.959-10.743A60.271,60.271,0,0,0,185.3,267.6a107.437,107.437,0,0,0-10.228-13.339c-4.018-4.517-8.178-8.9-12.389-13.24q-6.9-7.115-13.642-14.392a128.626,128.626,0,0,1-11.122-13.806,80.338,80.338,0,0,1-10.512-20.159,64.817,64.817,0,0,1-3.047-13.31,62.818,62.818,0,0,1-.272-11.976,73.07,73.07,0,0,1,2.131-13.234,48.226,48.226,0,0,1,10.666-19.928,44.079,44.079,0,0,1,12-9.3,44.605,44.605,0,0,1,10.6-4.26c1.511-.382,3.038-.719,4.573-.988a41.826,41.826,0,0,1,7.794-.534,43.193,43.193,0,0,1,27.865,10.371c1.594,1.332,2.971,2.925,4.449,4.4C204.285,134.017,204.411,134.118,204.669,134.345Z" fill="#ff0065"/>
    <path id="Path_2" data-name="Path 2" d="M274.7,189.037c-.218-.028-.353-.088-.457-.053a7.557,7.557,0,0,0-2.187,1.133c-.658.5-1.322.99-2,1.46a15.9,15.9,0,0,1-6.7,2.711,8.4,8.4,0,0,1-6.4-1.607,16.55,16.55,0,0,1-5.224-6.4,25.978,25.978,0,0,1-2.056-6.7,39.635,39.635,0,0,1-.13-11.432c.252-2.245.446-4.5.613-6.75.264-3.554.551-7.105,1.084-10.631.1-.639.243-1.27.376-1.954a6.839,6.839,0,0,1,2.728.006,17.479,17.479,0,0,1,6.418,2.4,33.915,33.915,0,0,1,9.218,8.364,42.107,42.107,0,0,1,5.225,8.844,28.437,28.437,0,0,1,1.035,3.083,1.133,1.133,0,0,0,.656.877,8.69,8.69,0,0,0,.867-.309,14.034,14.034,0,0,0,6.153-5.456,19.992,19.992,0,0,0,3.171-10.465,2.31,2.31,0,0,1,.105-1.211c.111-.033.161-.064.183-.05a.173.173,0,0,1,.063.11c.1.511.214,1.02.283,1.535.234,1.721.464,3.442.672,5.167a25.078,25.078,0,0,1-4.567,18.509,29.541,29.541,0,0,1-5.633,5.766,2.9,2.9,0,0,0-1.267,2.154c-.172,2.035-.463,4.06-.608,6.1a25.343,25.343,0,0,1-2.588,9.49,41.686,41.686,0,0,1-3.948,6.436,78.085,78.085,0,0,1-23.528,20.9,64.429,64.429,0,0,1-14.894,6.448,35.671,35.671,0,0,1-13,1.459c-5.6-.489-10.551-2.449-14.271-6.888a22.681,22.681,0,0,1-4.527-9,37.845,37.845,0,0,1-.961-12.293,88.691,88.691,0,0,1,1.479-10.842c.133-.679.342-1.345.537-2.01.04-.135.173-.243.41-.559,0,.578.032.906-.005,1.226a53.837,53.837,0,0,0-.434,7.022,20.155,20.155,0,0,0,1.936,8.444,16.1,16.1,0,0,0,10.312,8.746,26.129,26.129,0,0,0,6.925,1.087,46.267,46.267,0,0,0,15.6-2.512,64.662,64.662,0,0,0,20.384-11.049,83.812,83.812,0,0,0,10.919-10.062,65.141,65.141,0,0,0,7.158-9.764C274.108,190.039,274.387,189.566,274.7,189.037Zm-4.877-12.026c-.193-.349-.338-.66-.527-.941a33.383,33.383,0,0,0-8.6-8.8,18.763,18.763,0,0,0-4.972-2.525,11.464,11.464,0,0,0-3.692-.682,3.94,3.94,0,0,0-.743.155,17.931,17.931,0,0,0,.939,4.369,21.844,21.844,0,0,0,2.759,5.584c2.446,3.375,5.573,5.432,9.972,4.838a10.855,10.855,0,0,0,4.163-1.381A5.157,5.157,0,0,0,269.824,177.011Z" transform="translate(-32.887 -45.736)" fill="#ff0065"/>
    <path id="Path_3" data-name="Path 3" d="M187.438,256.593c0,1.323.065,2.539-.017,3.744a19.256,19.256,0,0,0,.08,4.033,40.781,40.781,0,0,0,.8,5.014c2.819,10.338,8.978,17.588,19.48,20.717a30.034,30.034,0,0,0,4.98.945,38.6,38.6,0,0,0,4.031.246,34.2,34.2,0,0,0,11.751-1.984,51.718,51.718,0,0,0,12.34-6.385,101.924,101.924,0,0,0,12.52-10.214c3.346-3.168,6.565-6.47,9.835-9.718,3.3-3.279,6.581-6.579,9.9-9.843a70.325,70.325,0,0,1,8.808-7.341,34.217,34.217,0,0,1,9.09-4.739,20.9,20.9,0,0,1,5.733-1.117,12,12,0,0,1,10.024,4.358,15.508,15.508,0,0,1,3.075,6.123,25.213,25.213,0,0,1,.615,9.694,51.135,51.135,0,0,1-3.653,13.271,8.038,8.038,0,0,1-.454.773,5.4,5.4,0,0,1,0-.689,26.594,26.594,0,0,0,.407-8.3,13.666,13.666,0,0,0-1.355-4.6,8.727,8.727,0,0,0-6.672-4.865,19.15,19.15,0,0,0-8.615.736,35.4,35.4,0,0,0-9.892,4.87,47.88,47.88,0,0,0-5.231,4.1c-3.848,3.464-7.538,7.091-11.145,10.8-4.122,4.242-8.237,8.488-12.613,12.474a106.4,106.4,0,0,1-11.317,9.218,60.148,60.148,0,0,1-10.227,5.7,36.021,36.021,0,0,1-15.322,3.069,33.32,33.32,0,0,1-12.04-2.5,25.2,25.2,0,0,1-14.04-14.47,41.283,41.283,0,0,1-2.356-8.926,57.3,57.3,0,0,1-.473-12.489c.12-2.163.511-4.313.819-6.463.2-1.376.465-2.74.7-4.111A2.06,2.06,0,0,1,187.438,256.593Z" transform="translate(-27.096 -85.989)" fill="#ff0065"/>
  </g>
</svg>
