<svg xmlns="http://www.w3.org/2000/svg" width="24.154" height="25.063" viewBox="0 0 24.154 25.063">
  <g id="Group_18" data-name="Group 18" transform="translate(-152.6 -8.83)">
    <path id="Path_25" data-name="Path 25" d="M164.677,50.9c-5.41,0-9.992-1.866-11.527-4.439a3.665,3.665,0,0,0-.55,1.893c0,3.495,5.41,6.332,12.077,6.332s12.077-2.837,12.077-6.332a3.665,3.665,0,0,0-.55-1.893C174.669,49.033,170.087,50.9,164.677,50.9Z" transform="translate(0 -20.792)" fill="#0b538f" fill-rule="evenodd"/>
    <ellipse id="Ellipse_29" data-name="Ellipse 29" cx="12.077" cy="6.332" rx="12.077" ry="6.332" transform="translate(152.6 8.83)" fill="#0b538f"/>
    <path id="Path_26" data-name="Path 26" d="M164.677,36.93c-5.464,0-10.081-1.9-11.572-4.51a3.65,3.65,0,0,0-.506,1.817c0,3.5,5.41,6.332,12.077,6.332s12.077-2.837,12.077-6.332a3.617,3.617,0,0,0-.506-1.817C174.759,35.029,170.141,36.93,164.677,36.93Z" transform="translate(0 -13.034)" fill="#0b538f" fill-rule="evenodd"/>
  </g>
</svg>
