<svg xmlns="http://www.w3.org/2000/svg" width="26.513" height="26.464" viewBox="0 0 26.513 26.464">
  <g id="plus-icon" transform="translate(0)">
    <path id="Path_30" data-name="Path 30" d="M23.518,10.158a2.966,2.966,0,0,1,3,2.979A3.038,3.038,0,0,1,23.5,16.162l-7.27.051-.051,7.278a3.014,3.014,0,0,1-3.024,2.973,2.963,2.963,0,0,1-2.974-2.982l.05-7.228L3,16.306a2.966,2.966,0,0,1-3-2.979A3.038,3.038,0,0,1,3.008,10.3l7.27-.051.051-7.278A3.014,3.014,0,0,1,13.353,0a2.963,2.963,0,0,1,2.974,2.982l-.05,7.228,7.241-.051Z" transform="translate(0 0)" fill="#d6d6d6" fill-rule="evenodd"/>
  </g>
</svg>
