<svg xmlns="http://www.w3.org/2000/svg" width="37.313" height="37.308" viewBox="0 0 37.313 37.308">
  <path id="my-account-icon" d="M18.643,0A18.7,18.7,0,0,1,35.884,11.538l.021.055A18.653,18.653,0,0,1,5.453,31.846h0A18.686,18.686,0,0,1,1.4,25.791l-.021-.058A18.628,18.628,0,0,1,5.453,5.466h0a18.686,18.686,0,0,1,6.055-4.051l.055-.021A18.6,18.6,0,0,1,18.643,0ZM15.03,24.085a3.3,3.3,0,0,1-1.379-2.323h-.085A1.151,1.151,0,0,1,13,21.613a1.549,1.549,0,0,1-.622-.756c-.288-.662-.516-2.4.206-2.9l-.146-.088v-.194c-.03-.349-.036-.774-.043-1.215-.027-1.637-.061-3.616-1.375-4.014l-.562-.17.37-.458a21.255,21.255,0,0,1,3.291-3.34,8.412,8.412,0,0,1,3.814-1.852,4.582,4.582,0,0,1,3.7,1.032,6.984,6.984,0,0,1,.993,1,4.23,4.23,0,0,1,2.97,1.737,6.039,6.039,0,0,1,.966,1.949,6.783,6.783,0,0,1,.261,2.21,5.326,5.326,0,0,1-1.542,3.586,1.1,1.1,0,0,1,.48.121,1.2,1.2,0,0,1,.422,1.467c-.143.446-.322.963-.495,1.4-.2.589-.5.7-1.108.635-.024,1.269-.85,1.876-1.661,2.578l.024.036a9.683,9.683,0,0,0,1.066,1.372.228.228,0,0,1,.036.043c1.88,1.33,5.939,1.652,7.694,2.63l.07.043a16.424,16.424,0,1,0-26.365,0h0l.07-.043c1.758-.978,6.838-1.3,8.742-2.605a5.9,5.9,0,0,0,.434-.841c.124-.3.246-.607.349-.868Z" transform="translate(0.018)" fill="#d6d6d6"/>
</svg>
