<svg id="setting-icon" xmlns="http://www.w3.org/2000/svg" width="33.372" height="33.372" viewBox="0 0 33.372 33.372">
  <path id="Path_20" data-name="Path 20" d="M27.59,3.992l2.395,2.4a1.625,1.625,0,0,1,0,2.292l-1.929,1.929a12.823,12.823,0,0,1,1.2,3.192h2.5a1.626,1.626,0,0,1,1.621,1.621v3.387a1.626,1.626,0,0,1-1.621,1.621H29.025a12.817,12.817,0,0,1-1.413,3.1L29.38,25.3a1.626,1.626,0,0,1,0,2.292l-2.395,2.4a1.626,1.626,0,0,1-2.292,0l-1.929-1.929a12.8,12.8,0,0,1-3.192,1.2v2.5a1.626,1.626,0,0,1-1.621,1.621H14.565a1.626,1.626,0,0,1-1.621-1.621V29.025a12.822,12.822,0,0,1-3.1-1.414L8.075,29.38a1.626,1.626,0,0,1-2.292,0L3.388,26.985a1.625,1.625,0,0,1,0-2.292l1.929-1.929a12.786,12.786,0,0,1-1.2-3.191h-2.5A1.626,1.626,0,0,1,0,17.952V14.565a1.626,1.626,0,0,1,1.621-1.621H4.347a12.838,12.838,0,0,1,1.413-3.1L3.992,8.075a1.626,1.626,0,0,1,0-2.292l2.4-2.4a1.625,1.625,0,0,1,2.292,0l1.929,1.929a12.8,12.8,0,0,1,3.192-1.2v-2.5A1.626,1.626,0,0,1,15.421,0h3.387a1.626,1.626,0,0,1,1.621,1.621V4.347a12.83,12.83,0,0,1,3.1,1.413L25.3,3.992a1.626,1.626,0,0,1,2.292,0Zm-10.9,6.035a6.659,6.659,0,1,1-6.659,6.659,6.66,6.66,0,0,1,6.659-6.659Z" fill="#d6d6d6" fill-rule="evenodd"/>
</svg>
