<svg id="speech-bubble-black-icon" xmlns="http://www.w3.org/2000/svg" width="16.41" height="18.222" viewBox="0 0 16.41 18.222">
  <path id="Path_25" data-name="Path 25" d="M7.909,13.819a7.84,7.84,0,0,1-2.412,4.4,11.834,11.834,0,0,0,6.75-4.4ZM12.739,0H3.671A3.681,3.681,0,0,0,0,3.671v6.478a3.681,3.681,0,0,0,3.671,3.671h9.069a3.682,3.682,0,0,0,3.671-3.671V3.671A3.681,3.681,0,0,0,12.739,0ZM3.888,5.208a1.5,1.5,0,1,1-1.5,1.5,1.5,1.5,0,0,1,1.5-1.5Zm8.634,0a1.5,1.5,0,1,1-1.5,1.5,1.5,1.5,0,0,1,1.5-1.5Zm-4.317,0a1.5,1.5,0,1,1-1.5,1.5,1.5,1.5,0,0,1,1.5-1.5Z" fill="#fff" fill-rule="evenodd"/>
</svg>
