<svg id="star-half-icon" xmlns="http://www.w3.org/2000/svg" width="12.149" height="10.553" viewBox="0 0 12.149 10.553">
  <path id="Path_21" data-name="Path 21" d="M6.616.431,8.169,3.744l3.94.322a.3.3,0,0,1,.288.312.278.278,0,0,1-.107.192L9.31,6.94l.882,3.514a.29.29,0,0,1-.238.346.344.344,0,0,1-.244-.04L6.324,8.915l-3.4,1.85a.335.335,0,0,1-.434-.1.264.264,0,0,1-.037-.212h0L3.339,6.94.357,4.569a.27.27,0,0,1-.03-.406.328.328,0,0,1,.221-.1l3.93-.321L6.034.429A.328.328,0,0,1,6.449.277a.3.3,0,0,1,.167.154Zm-.292.845L7.662,4.127h0a.315.315,0,0,0,.264.174l3.392.277L8.764,6.609a.274.274,0,0,0-.114.292L9.41,9.925,6.492,8.335a.34.34,0,0,0-.168-.044V1.275Z" transform="translate(-0.249 -0.254)" fill="#f9cf2b" fill-rule="evenodd"/>
</svg>
