<svg xmlns="http://www.w3.org/2000/svg" width="20.999" height="20.532" viewBox="0 0 20.999 20.532">
  <path id="three-stars-icon" d="M4.4,12.856,3.433,15.12a.3.3,0,0,1-.269.183l-2.433.219,1.855,1.619a.3.3,0,0,1,.1.294l-.548,2.4,2.113-1.263a.3.3,0,0,1,.309,0l2.113,1.263-.241-1.052a1.614,1.614,0,0,0,.607-.047l.274,1.2a.52.52,0,0,1-.067.343.514.514,0,0,1-.705.177L4.4,19.181,2.283,20.448a.507.507,0,0,1-.153.067l-.039.009a.51.51,0,0,1-.187,0l-.021,0a.516.516,0,0,1-.388-.607l.557-2.436L.18,15.84a.522.522,0,0,1-.173-.327l0-.027a.518.518,0,0,1,.457-.545l2.488-.222.975-2.285a.523.523,0,0,1,.246-.263.321.321,0,0,1,.057-.024.515.515,0,0,1,.632.254l.772,1.805-.224.981a.285.285,0,0,1-.04-.067L4.4,12.856ZM1.682,6.225a.459.459,0,1,1,.356-.847l1.917.812a.459.459,0,1,1-.356.847L1.682,6.225ZM3.631,3.238a.46.46,0,1,1,.652-.648l1.464,1.48a.46.46,0,1,1-.652.648L3.631,3.238ZM6.57,1.214A.46.46,0,0,1,7.42.865L8.211,2.79a.46.46,0,0,1-.85.349L6.57,1.214Zm12.4,4.165a.459.459,0,1,1,.356.847l-1.917.812a.459.459,0,1,1-.356-.847ZM16.722,2.59a.46.46,0,1,1,.652.648L15.91,4.718a.46.46,0,1,1-.652-.648l1.464-1.48ZM13.585.865a.46.46,0,0,1,.85.349L13.644,3.14a.46.46,0,0,1-.85-.349L13.585.865Zm-3.558-.4a.461.461,0,1,1,.922,0V2.543a.461.461,0,0,1-.922,0V.461Zm1,5.1L12.5,9.016l3.755.336a.56.56,0,0,1,.374.2l.015.02a.557.557,0,0,1,.115.38l0,.021a.558.558,0,0,1-.058.194l-.009.016a.571.571,0,0,1-.1.132l-2.857,2.5.842,3.684a.562.562,0,0,1-.858.582L10.5,15.154,7.264,17.09a.561.561,0,0,1-.828-.611l.838-3.67L4.439,10.332a.561.561,0,0,1,.339-.982l3.729-.334L9.986,5.553a.562.562,0,0,1,1.035,0l0,.005Zm6.06,6.877.973,2.279,2.488.222a.518.518,0,0,1,.457.545l0,.027a.522.522,0,0,1-.173.327l-1.874,1.636.557,2.436a.516.516,0,0,1-.388.607l-.021,0a.511.511,0,0,1-.187,0l-.039-.009a.5.5,0,0,1-.153-.067L16.6,19.181,14.47,20.458a.514.514,0,0,1-.705-.177A.523.523,0,0,1,13.7,20.1v0a.487.487,0,0,1,0-.156l.274-1.2c.045.012.091.023.137.031a1.625,1.625,0,0,0,.47.017l-.241,1.053,2.113-1.263a.3.3,0,0,1,.309,0l2.113,1.263-.548-2.4a.3.3,0,0,1,.1-.294l1.855-1.619L17.841,15.3a.3.3,0,0,1-.269-.183L16.6,12.856l-.967,2.264a.3.3,0,0,1-.042.069l-.224-.981.773-1.808a.516.516,0,0,1,.632-.254.341.341,0,0,1,.057.025.511.511,0,0,1,.135.1.526.526,0,0,1,.111.165l0,.006Z" transform="translate(-0.003)" fill="#fff"/>
</svg>
