<svg id="Group_75" data-name="Group 75" xmlns="http://www.w3.org/2000/svg" width="41" height="41.713" viewBox="0 0 41 41.713">
  <g id="line-angle-left-icon" transform="translate(0 0)">
    <path id="Path_5" data-name="Path 5" d="M22.051,3.964A2.335,2.335,0,1,0,18.7.709L.668,19.305l1.674,1.629L.661,19.305a2.343,2.343,0,0,0,.051,3.313c.027.027.054.051.081.075L18.7,41a2.335,2.335,0,1,0,3.347-3.256L5.6,20.928,22.051,3.964Z" fill="#01427a"/>
  </g>
  <g id="line-angle-left-icon-2" data-name="line-angle-left-icon" transform="translate(2.24 0)">
    <path id="Path_5-2" data-name="Path 5" d="M22.051,3.964A2.335,2.335,0,1,0,18.7.709L.668,19.305l1.674,1.629L.661,19.305a2.343,2.343,0,0,0,.051,3.313c.027.027.054.051.081.075L18.7,41a2.335,2.335,0,1,0,3.347-3.256L5.6,20.928,22.051,3.964Z" fill="#ff0065"/>
  </g>
  <rect id="Rectangle_20" data-name="Rectangle 20" width="12" height="5" rx="2.5" transform="translate(15 18.155)" fill="#ff0065"/>
  <rect id="Rectangle_21" data-name="Rectangle 21" width="5" height="5" rx="2.5" transform="translate(29 18.155)" fill="#ff0065"/>
  <rect id="Rectangle_22" data-name="Rectangle 22" width="5" height="5" rx="2.5" transform="translate(36 18.155)" fill="#ff0065"/>
</svg>
