<svg xmlns="http://www.w3.org/2000/svg" width="25.041" height="18.501" viewBox="0 0 25.041 18.501">
  <path id="black-camera-icon" d="M9.548.01h8.888l2.037,3.606h4.161a.408.408,0,0,1,.407.408V18.093a.408.408,0,0,1-.407.407H.407A.408.408,0,0,1,0,18.093V4.019a.407.407,0,0,1,.407-.407H2.284V2.322H4.6V3.616H7.115L8.686.515C9-.117,8.831.01,9.548.01Zm4.03,6.449a3.983,3.983,0,0,1,2.818,6.8l-.047.043a3.983,3.983,0,1,1-2.771-6.844Zm1.785,2.2a2.522,2.522,0,1,0-.033,3.606l.033-.039a2.522,2.522,0,0,0,0-3.57ZM22.427,5.4a1.2,1.2,0,1,1-1.2,1.2,1.2,1.2,0,0,1,1.2-1.2ZM13.58,4.425a6.017,6.017,0,1,1-6.017,6.017A6.017,6.017,0,0,1,13.58,4.425Z" transform="translate(0 0.001)" fill="#dfdfdf" fill-rule="evenodd"/>
</svg>
