<svg id="column-chart-icon" xmlns="http://www.w3.org/2000/svg" width="24.349" height="21" viewBox="0 0 24.349 21">
  <path id="Path_34" data-name="Path 34" d="M24.349,21H1.9v0A1.894,1.894,0,0,1,0,19.1H0V0H2.429V18.573H24.349V21ZM16.52,9.036h3.874a.375.375,0,0,1,.375.375v7.621a.375.375,0,0,1-.375.375H16.52a.375.375,0,0,1-.375-.375V9.412a.377.377,0,0,1,.375-.376ZM5.025,4.373H8.9a.375.375,0,0,1,.375.375V17.033a.375.375,0,0,1-.375.375H5.025a.375.375,0,0,1-.375-.375V4.748a.375.375,0,0,1,.375-.375ZM10.773,1.75h3.872a.375.375,0,0,1,.375.375V17.033a.375.375,0,0,1-.375.375H10.773a.375.375,0,0,1-.375-.375V2.124a.375.375,0,0,1,.375-.375Z" fill="#0b538f"/>
</svg>
