<svg xmlns="http://www.w3.org/2000/svg" width="11.914" height="14.586" viewBox="0 0 11.914 14.586">
  <g id="Group_67" data-name="Group 67" transform="translate(-30.24 -253.852)">
    <g id="line-angle-left-icon" transform="translate(30.24 253.852)">
      <path id="Path_5" data-name="Path 5" d="M7.714,13.2a.816.816,0,1,1-1.17,1.138L.236,7.837l.585-.57-.588.57A.819.819,0,0,1,.252,6.679L.28,6.652,6.543.25a.816.816,0,1,1,1.17,1.138L1.961,7.27,7.714,13.2Z" transform="translate(-0.003 -0.002)" fill="#ff0065"/>
    </g>
    <g id="line-angle-left-icon-2" data-name="line-angle-left-icon" transform="translate(34.211 253.852)">
      <path id="Path_5-2" data-name="Path 5" d="M7.714,13.2a.816.816,0,1,1-1.17,1.138L.236,7.837l.585-.57-.588.57A.819.819,0,0,1,.252,6.679L.28,6.652,6.543.25a.816.816,0,1,1,1.17,1.138L1.961,7.27,7.714,13.2Z" transform="translate(-0.003 -0.002)" fill="#ff0065"/>
    </g>
  </g>
</svg>
