<svg xmlns="http://www.w3.org/2000/svg" width="27.983" height="20.655" viewBox="0 0 27.983 20.655">
  <g id="interlocking-rings-svgrepo-com" transform="translate(0 -120.6)">
    <g id="Group_19" data-name="Group 19" transform="translate(0 120.6)">
      <path id="Path_15" data-name="Path 15" d="M8.535,286.794a8.48,8.48,0,0,0,4.712-1.416c-.188-.164-.371-.337-.55-.52a9.615,9.615,0,0,1-1.085-1.331,6.1,6.1,0,1,1-5.281-10.956L4.573,270.7a8.535,8.535,0,0,0,3.962,16.094Z" transform="translate(0 -266.139)" fill="#dfdfdf"/>
      <path id="Path_16" data-name="Path 16" d="M364.9,242.2a6.1,6.1,0,1,1,3.133,11.333,6.1,6.1,0,0,1-5.9-7.644,5.225,5.225,0,0,0-1.632-2.47,8.507,8.507,0,0,0-1,4.011,8.533,8.533,0,0,0,8.31,8.529c.073,0,.146,0,.222,0a8.529,8.529,0,1,0-4.764-15.6A9.268,9.268,0,0,1,364.9,242.2Z" transform="translate(-348.577 -235.306)" fill="#dfdfdf"/>
      <path id="Path_17" data-name="Path 17" d="M356.217,271.538a8.1,8.1,0,0,0-1.164-.738l-1.753,1.869.158.064a6.1,6.1,0,0,1,3.564,7.107l.191.471a5.271,5.271,0,0,0,1.452,2.005,8.464,8.464,0,0,0,.927-3.1c.027-.283.042-.568.042-.851A8.683,8.683,0,0,0,356.217,271.538Z" transform="translate(-342.566 -266.236)" fill="#dfdfdf"/>
      <path id="Path_18" data-name="Path 18" d="M135.283,127.54a.763.763,0,0,0,.553.24.751.751,0,0,0,.553-.24l.735-.781,3.054-3.245a.76.76,0,0,0,.088-.927l-1.039-1.635a.76.76,0,0,0-.641-.352h-5.493a.764.764,0,0,0-.641.352l-1.039,1.635a.756.756,0,0,0,.088.927Z" transform="translate(-127.304 -120.6)" fill="#dfdfdf"/>
    </g>
  </g>
</svg>
