<svg xmlns="http://www.w3.org/2000/svg" width="21.431" height="28.268" viewBox="0 0 21.431 28.268">
  <g id="logout-line-icon" transform="translate(0.5 0.5)">
    <path id="Path_27" data-name="Path 27" d="M18.141,14.339H9.179a.705.705,0,0,1,0-1.411H18.14L15.214,9.576a.708.708,0,0,1,.06-.992.691.691,0,0,1,.982.061l3.949,4.523a.708.708,0,0,1,0,.934l-3.947,4.52a.69.69,0,0,1-.982.061.708.708,0,0,1-.06-.992l2.927-3.352ZM15.72,22.108a.705.705,0,1,1,1.411,0v3.16a2.006,2.006,0,0,1-2,2H2a2,2,0,0,1-2-2V2A2,2,0,0,1,2,0H15.132a2,2,0,0,1,2,2v3.16a.705.705,0,0,1-1.411,0V2a.594.594,0,0,0-.588-.588H2A.593.593,0,0,0,1.411,2v23.27A.594.594,0,0,0,2,25.857H15.132a.6.6,0,0,0,.588-.588v-3.16Z" fill="#fff" stroke="#fff" stroke-width="1"/>
  </g>
</svg>
