<svg xmlns="http://www.w3.org/2000/svg" width="25.654" height="24.504" viewBox="0 0 25.654 24.504">
  <g id="male-and-female-svgrepo-com" transform="translate(-0.001 -1.029)">
    <g id="Group_18" data-name="Group 18" transform="translate(0.001 1.029)">
      <path id="Path_13" data-name="Path 13" d="M8.583,18.094a8.513,8.513,0,0,0,1.608-.154,9.778,9.778,0,0,1-2.7-3.516,4.986,4.986,0,0,1,1.1-9.85,4.99,4.99,0,0,1,4.7,6.659,5.082,5.082,0,0,1-.243.568l.006.015a3.682,3.682,0,0,0,2.832,2.173A8.53,8.53,0,1,0,4.323,16.953L3.277,19.89l-.355-.75A1.535,1.535,0,1,0,.149,20.456l1.995,4.2a1.533,1.533,0,0,0,2.044.728l3.99-1.9a1.534,1.534,0,1,0-1.316-2.772l-.75.356,1.1-3.092A8.434,8.434,0,0,0,8.583,18.094Z" transform="translate(-0.001 -1.029)" fill="#dfdfdf"/>
      <path id="Path_14" data-name="Path 14" d="M31.754,19.629a1.534,1.534,0,0,0-2.017-.8l-1.689.732-.652-1.5A8.529,8.529,0,0,0,22.652,2.441a7.232,7.232,0,0,0-1.781.2A6.841,6.841,0,0,1,23.622,6.09a4.791,4.791,0,0,1,3.607,2.9,4.985,4.985,0,1,1-9.263.287c.017-.047.035-.094.053-.141a5.113,5.113,0,0,1,.347-.7,4.923,4.923,0,0,0-2.606-2.15c-.065-.023-.132-.034-.2-.053a8.536,8.536,0,0,0-.84,1.6c-.012.03-.022.059-.034.088a8.508,8.508,0,0,0,9.89,11.354l.653,1.505-1.69.733a1.534,1.534,0,1,0,1.22,2.815L26.45,23.6l.624,1.439a1.534,1.534,0,0,0,2.816-1.219l-.624-1.44,1.69-.732A1.531,1.531,0,0,0,31.754,19.629Z" transform="translate(-6.228 -1.652)" fill="#dfdfdf"/>
    </g>
  </g>
</svg>
