<svg xmlns="http://www.w3.org/2000/svg" width="14.563" height="20.908" viewBox="0 0 14.563 20.908">
  <g id="microphone-icon" transform="translate(-0.02)">
    <path id="Path_32" data-name="Path 32" d="M14.583,9.718a.987.987,0,0,0-1.974,0A6.9,6.9,0,0,1,11.2,14.342a4.954,4.954,0,0,1-3.9,1.53,4.953,4.953,0,0,1-3.9-1.528A6.888,6.888,0,0,1,1.994,9.718a.987.987,0,0,0-1.974,0,8.788,8.788,0,0,0,1.9,5.929,6.4,6.4,0,0,0,3.8,2.068v1.62H3.3a.789.789,0,0,0-.786.786v.788h9.57v-.788a.789.789,0,0,0-.786-.786H8.877v-1.62a6.412,6.412,0,0,0,3.8-2.069,8.781,8.781,0,0,0,1.906-5.927ZM7.3,0a3.673,3.673,0,0,1,3.662,3.662v.1H8.993V6.09h1.971V7.278H8.993V9.611h1.971v.839a3.662,3.662,0,1,1-7.324,0V9.611H5.61V7.278H3.638V6.09H5.608V3.757H3.638v-.1A3.673,3.673,0,0,1,7.3,0Z" fill="#fff"/>
  </g>
</svg>
