<svg xmlns="http://www.w3.org/2000/svg" width="22.95" height="24.815" viewBox="0 0 22.95 24.815">
  <path id="passcode-icon_1_" data-name="passcode-icon (1)" d="M1.635,15.045h19.68A1.642,1.642,0,0,1,22.95,16.68v6.5a1.643,1.643,0,0,1-1.635,1.635H1.635A1.642,1.642,0,0,1,0,23.18v-6.5A1.64,1.64,0,0,1,1.635,15.045ZM6.656,5.17h.533V4.443A4.513,4.513,0,0,1,8.439,1.316a4.161,4.161,0,0,1,6.072,0,4.509,4.509,0,0,1,1.251,3.128V5.17h.532a.7.7,0,0,1,.7.7v6.916a.7.7,0,0,1-.7.7H6.656a.7.7,0,0,1-.7-.7V5.87a.7.7,0,0,1,.7-.7Zm4.265,4.473-.728,1.907h2.565l-.674-1.934a1.327,1.327,0,1,0-1.162.027ZM8.512,5.17h5.925V4.443a3.192,3.192,0,0,0-.879-2.213,2.849,2.849,0,0,0-4.168,0,3.189,3.189,0,0,0-.879,2.213V5.17ZM17.2,18.226a.539.539,0,1,1,1.078,0v.7l.579-.387a.538.538,0,0,1,.6.893l-.747.5.747.5a.538.538,0,1,1-.594.9l-.583-.387v.7a.539.539,0,1,1-1.078,0v-.7l-.578.387a.538.538,0,1,1-.6-.894l.746-.5-.747-.5a.538.538,0,0,1,.594-.9l.583.388v-.7Zm-12.526,0a.539.539,0,1,1,1.078,0v.7l.578-.387a.538.538,0,1,1,.6.893l-.746.5.747.5a.538.538,0,0,1-.595.9l-.583-.387v.7a.539.539,0,1,1-1.078,0v-.7l-.579.387a.538.538,0,0,1-.6-.894l.746-.5-.747-.5a.538.538,0,0,1,.594-.9l.583.388Zm6.263,0a.539.539,0,0,1,1.079,0v.7l.578-.387a.538.538,0,1,1,.6.893l-.746.5.747.5a.538.538,0,1,1-.594.9l-.583-.387v.7a.539.539,0,0,1-1.079,0v-.7l-.578.387a.538.538,0,0,1-.6-.894l.747-.5-.747-.5a.538.538,0,0,1,.594-.9l.583.388v-.7Z" fill="#dfdfdf" fill-rule="evenodd"/>
</svg>
