<svg id="question-inquiry-icon" xmlns="http://www.w3.org/2000/svg" width="27.308" height="29.171" viewBox="0 0 27.308 29.171">
  <path id="Path_23" data-name="Path 23" d="M16.377,1.832H6.444a4.592,4.592,0,0,0-1.782.336A4.547,4.547,0,0,0,1.832,6.444v9.7a4.64,4.64,0,0,0,2.842,4.275,4.526,4.526,0,0,0,1.77.337h4.263a.915.915,0,0,1,.91.91,1.253,1.253,0,0,1-.05.312c-.162.6-.337,1.2-.536,1.77-.212.611-.436,1.184-.686,1.745a9.2,9.2,0,0,1-.436.848A17.155,17.155,0,0,0,12.364,25a16.991,16.991,0,0,0,2.231-1.745,16.085,16.085,0,0,0,1.894-2.119.9.9,0,0,1,.723-.361h3.664a4.524,4.524,0,0,0,1.77-.337,4.809,4.809,0,0,0,1.5-1.009,4.419,4.419,0,0,0,1.346-3.266v-9.7a4.592,4.592,0,0,0-.336-1.782,4.548,4.548,0,0,0-4.275-2.829h-4.5V1.832ZM14.649,13.22H12.28v-.256a3.4,3.4,0,0,1,.136-1.061,2.387,2.387,0,0,1,.409-.746,12.824,12.824,0,0,1,1.219-1.188,1.2,1.2,0,0,0,.5-.815.794.794,0,0,0-.2-.578.836.836,0,0,0-.615-.205A.946.946,0,0,0,13,8.688a1.938,1.938,0,0,0-.371,1.106L10.21,9.469a3.7,3.7,0,0,1,.968-2.323,3.442,3.442,0,0,1,2.592-.88,3.626,3.626,0,0,1,2.194.612A2.612,2.612,0,0,1,17.1,9.091,2.265,2.265,0,0,1,16.8,10.2a5.234,5.234,0,0,1-1.2,1.3,3.414,3.414,0,0,0-.8.868,1.919,1.919,0,0,0-.164.853ZM12.2,13.9h2.538v2.025H12.2V13.9ZM10.943.013h9.933a6.544,6.544,0,0,1,2.468.474,6.347,6.347,0,0,1,2.081,1.408,6.346,6.346,0,0,1,1.409,2.081,6.45,6.45,0,0,1,.473,2.468v9.7a6.454,6.454,0,0,1-.473,2.468,6.355,6.355,0,0,1-1.409,2.081A6.548,6.548,0,0,1,23.345,22.1a6.445,6.445,0,0,1-2.468.474H17.661a18.509,18.509,0,0,1-1.82,1.994,17.757,17.757,0,0,1-2.48,1.944,18.229,18.229,0,0,1-2.842,1.533,22.309,22.309,0,0,1-3.191,1.1.909.909,0,0,1-.835-1.558,9.946,9.946,0,0,0,1.334-1.409,7,7,0,0,0,.848-1.421V24.74c.237-.523.449-1.059.636-1.6.062-.187.125-.386.187-.586H6.431a6.545,6.545,0,0,1-2.468-.474,6.348,6.348,0,0,1-2.081-1.408A6.351,6.351,0,0,1,.473,18.6,6.54,6.54,0,0,1,0,16.128v-9.7A6.538,6.538,0,0,1,.474,3.963,6.348,6.348,0,0,1,1.882,1.882,6.348,6.348,0,0,1,3.964.473,6.445,6.445,0,0,1,6.431,0h4.5l.013.013Z" transform="translate(0)" fill="#0b538f"/>
</svg>
