<svg xmlns="http://www.w3.org/2000/svg" width="27.572" height="26.391" viewBox="0 0 27.572 26.391">
  <path id="setting-bell-notification-icon" d="M15.857,1.606a9.136,9.136,0,0,1,1.9.832,8.455,8.455,0,0,0-1.657.807,7.636,7.636,0,0,0-.98-.329.73.73,0,0,1-.519-.5,1.249,1.249,0,0,0-.576-.739,1.587,1.587,0,0,0-.8-.209,1.531,1.531,0,0,0-.8.207,1.225,1.225,0,0,0-.557.731.738.738,0,0,1-.533.509A7.756,7.756,0,0,0,5.619,9a18.682,18.682,0,0,0-.136,3.4L5.5,13.464a9.25,9.25,0,0,1-.954,4.39,8.9,8.9,0,0,1-2.909,3.162H24.764a9.473,9.473,0,0,1-2.38-2.29,8.382,8.382,0,0,0,1.489-.462,8.734,8.734,0,0,0,1.912,1.68,1.356,1.356,0,0,1,.568.781l.011.048a1.423,1.423,0,0,1-.439,1.366l-.065.051a1.363,1.363,0,0,1-.843.288l-7.34,0,0,.019a4.517,4.517,0,0,1-8.949-.017H1.384a1.355,1.355,0,0,1-.945-.371,1.4,1.4,0,0,1-.388-.643l-.012-.049a1.413,1.413,0,0,1,.011-.7,1.362,1.362,0,0,1,.6-.8,7.61,7.61,0,0,0,2.6-2.738,7.857,7.857,0,0,0,.783-3.714l-.01-1.044A19.789,19.789,0,0,1,4.18,8.744a9.217,9.217,0,0,1,6.431-7.15A2.65,2.65,0,0,1,11.675.416a3.094,3.094,0,0,1,3.094,0,2.684,2.684,0,0,1,1.088,1.194ZM22.59,7.094a.366.366,0,0,0-.283-.065.375.375,0,0,0-.242.157l-.335.473a3.042,3.042,0,0,0-.761-.2l-.1-.618a.39.39,0,0,0-.152-.243.359.359,0,0,0-.282-.059l-.774.138a.383.383,0,0,0-.243.151.362.362,0,0,0-.066.283l.1.565a2.875,2.875,0,0,0-.676.407l-.526-.362a.351.351,0,0,0-.276-.066.385.385,0,0,0-.243.158l-.447.637a.368.368,0,0,0-.065.282.359.359,0,0,0,.158.243l.472.335a3.075,3.075,0,0,0-.2.761l-.618.1a.384.384,0,0,0-.243.151.359.359,0,0,0-.059.282l.138.775a.385.385,0,0,0,.151.243.357.357,0,0,0,.283.066l.564-.1a3.266,3.266,0,0,0,.407.683l-.361.519a.349.349,0,0,0-.065.276.376.376,0,0,0,.158.243l.644.453a.361.361,0,0,0,.281.059.4.4,0,0,0,.251-.151l.334-.479a3.163,3.163,0,0,0,.763.2l.1.617a.375.375,0,0,0,.151.243.356.356,0,0,0,.283.059l.775-.137a.39.39,0,0,0,.243-.152.361.361,0,0,0,.065-.282l-.1-.565a3.215,3.215,0,0,0,.682-.408l.52.361a.369.369,0,0,0,.525-.093l.453-.644a.36.36,0,0,0,.059-.281.4.4,0,0,0-.151-.25L23.4,11.54a3.094,3.094,0,0,0,.2-.761l.618-.105a.381.381,0,0,0,.243-.152.352.352,0,0,0,.059-.282l-.138-.775a.386.386,0,0,0-.151-.242.36.36,0,0,0-.283-.066l-.564.1a2.988,2.988,0,0,0-.407-.676l.361-.526a.347.347,0,0,0,.065-.275.381.381,0,0,0-.158-.244l-.637-.445-.019.006ZM20.621,8.771a1.656,1.656,0,1,1-1.656,1.656A1.656,1.656,0,0,1,20.621,8.771Zm0-5.3A6.952,6.952,0,1,1,15.7,5.511a6.931,6.931,0,0,1,4.916-2.036Zm4.074,2.878a5.762,5.762,0,1,0,1.687,4.074,5.745,5.745,0,0,0-1.687-4.074Z" transform="translate(0 0.001)" fill="#0b538f"/>
</svg>
