<svg id="wallet-icon" xmlns="http://www.w3.org/2000/svg" width="27.382" height="22.58" viewBox="0 0 27.382 22.58">
  <path id="Path_33" data-name="Path 33" d="M20.2,7.426h4.1V6.8c-.642-2.391-2.273-2.376-4.29-2.356-.332,0-.633.007-.651.007H4.027a.637.637,0,0,1,0-1.275H19.355c.452,0,.548,0,.64,0,1.725-.018,3.231-.033,4.3.976V3.862A2.6,2.6,0,0,0,21.7,1.27H3.864A2.6,2.6,0,0,0,1.273,3.862V18.713a2.6,2.6,0,0,0,2.592,2.592H21.7a2.6,2.6,0,0,0,2.592-2.592V16.605h-4.1a4.5,4.5,0,0,1-4.5-4.5v-.194a4.5,4.5,0,0,1,4.5-4.491Zm5.373.025a2.144,2.144,0,0,1,1.814,2.115v4.814a2.232,2.232,0,0,1-1.814,2.191v2.146A3.873,3.873,0,0,1,21.7,22.58H3.864A3.873,3.873,0,0,1,0,18.718V3.864A3.873,3.873,0,0,1,3.864,0H21.7a3.873,3.873,0,0,1,3.864,3.864V7.45Zm-5.926,2.826a1.634,1.634,0,1,1-1.634,1.634,1.633,1.633,0,0,1,1.634-1.634Z" fill="#0b538f" fill-rule="evenodd"/>
</svg>
